<svg width="73" height="56" viewBox="0 0 73 56" fill="none" xmlns="http://www.w3.org/2000/svg">
<path d="M55.5875 24.5757C61.0861 24.5757 65.5466 20.1184 65.5466 14.6198C65.5466 9.12117 61.0861 4.66379 55.5875 4.66379M60.166 35.3952C61.8081 35.5084 63.4407 35.7412 65.0481 36.103C67.2815 36.5402 69.9679 37.4556 70.9242 39.4594C71.5344 40.7428 71.5344 42.237 70.9242 43.5236C69.971 45.5273 67.2815 46.4396 65.0481 46.8988M16.7935 24.5757C11.2949 24.5757 6.83442 20.1184 6.83442 14.6198C6.83442 9.12117 11.2949 4.66379 16.7935 4.66379M12.215 35.3952C10.573 35.5084 8.9404 35.7412 7.33298 36.103C5.09957 36.5402 2.41318 37.4556 1.46005 39.4594C0.84665 40.7428 0.84665 42.237 1.46005 43.5236C2.41004 45.5273 5.09957 46.4396 7.33298 46.8988M36.1744 37.5393C47.3163 37.5393 56.835 39.2253 56.835 45.9728C56.835 52.717 47.3792 54.466 36.1744 54.466C25.0294 54.466 15.5138 52.7799 15.5138 46.0325C15.5138 39.2851 24.9696 37.5393 36.1744 37.5393ZM36.1744 27.9149C28.8262 27.9149 22.9344 22.0231 22.9344 14.6717C22.9344 7.32344 28.8262 1.43164 36.1744 1.43164C43.5226 1.43164 49.4144 7.32344 49.4144 14.6717C49.4144 22.0231 43.5226 27.9149 36.1744 27.9149Z" stroke="#200E32" stroke-width="2" stroke-linecap="round" stroke-linejoin="round"/>
</svg>
