<svg width="291" height="78" viewBox="0 0 291 78" fill="none" xmlns="http://www.w3.org/2000/svg">
<path d="M0.734375 37.5781C0.734375 30.651 1.98438 25.4818 4.48438 22.0703C6.98438 18.6589 10.487 16.9531 14.9922 16.9531C18.8203 16.9531 21.776 18.4635 23.8594 21.4844L24.2891 17.7344H34.25V60C34.25 65.3906 32.7396 69.5052 29.7188 72.3438C26.6979 75.2083 22.362 76.6406 16.7109 76.6406C14.3932 76.6406 11.9583 76.1719 9.40625 75.2344C6.85417 74.3229 4.95312 73.151 3.70312 71.7188L7.41406 64.0625C8.45573 65.1562 9.8099 66.0417 11.4766 66.7188C13.1432 67.4219 14.7188 67.7734 16.2031 67.7734C18.6771 67.7734 20.4479 67.1745 21.5156 65.9766C22.6094 64.8047 23.1693 62.9036 23.1953 60.2734V56.6406C21.0859 59.401 18.3385 60.7812 14.9531 60.7812C10.4479 60.7812 6.95833 59.0365 4.48438 55.5469C2.03646 52.0312 0.786458 47.0833 0.734375 40.7031V37.5781ZM11.7891 40.3516C11.7891 44.2578 12.2969 47.1094 13.3125 48.9062C14.3281 50.6771 15.9427 51.5625 18.1562 51.5625C20.4219 51.5625 22.1016 50.7422 23.1953 49.1016V28.9062C22.0495 27.1094 20.3958 26.2109 18.2344 26.2109C16.0469 26.2109 14.4193 27.1094 13.3516 28.9062C12.3099 30.7031 11.7891 33.5938 11.7891 37.5781V40.3516ZM41.0078 37.5C41.0078 31.0938 42.5182 26.0677 45.5391 22.4219C48.5599 18.776 52.7396 16.9531 58.0781 16.9531C63.4688 16.9531 67.6745 18.776 70.6953 22.4219C73.7161 26.0677 75.2266 31.1198 75.2266 37.5781V40.2734C75.2266 46.7057 73.7292 51.7318 70.7344 55.3516C67.7396 58.9714 63.5469 60.7812 58.1562 60.7812C52.7396 60.7812 48.5208 58.9714 45.5 55.3516C42.5052 51.7057 41.0078 46.6536 41.0078 40.1953V37.5ZM52.1016 40.2734C52.1016 47.8255 54.1198 51.6016 58.1562 51.6016C61.8802 51.6016 63.8854 48.4505 64.1719 42.1484L64.2109 37.5C64.2109 33.6458 63.6771 30.7943 62.6094 28.9453C61.5417 27.0703 60.0312 26.1328 58.0781 26.1328C56.2031 26.1328 54.7318 27.0703 53.6641 28.9453C52.6224 30.7943 52.1016 33.6458 52.1016 37.5V40.2734ZM94.9922 7.34375V17.7344H100.656V26.0547H94.9922V47.0312C94.9922 48.6979 95.2135 49.8438 95.6562 50.4688C96.125 51.0938 97.0104 51.4062 98.3125 51.4062C99.3802 51.4062 100.253 51.3151 100.93 51.1328L100.852 59.7266C98.9766 60.4297 96.9453 60.7812 94.7578 60.7812C87.6224 60.7812 84.0156 56.6927 83.9375 48.5156V26.0547H79.0547V17.7344H83.9375V7.34375H94.9922ZM118.352 60H107.258V17.7344H118.352V60ZM106.75 6.79688C106.75 5.07812 107.297 3.67188 108.391 2.57812C109.484 1.48438 110.943 0.9375 112.766 0.9375C114.589 0.9375 116.047 1.48438 117.141 2.57812C118.234 3.67188 118.781 5.07812 118.781 6.79688C118.781 8.48958 118.234 9.89583 117.141 11.0156C116.073 12.1354 114.615 12.6953 112.766 12.6953C110.917 12.6953 109.445 12.1354 108.352 11.0156C107.284 9.89583 106.75 8.48958 106.75 6.79688ZM137.023 17.7344L137.336 21.9141C139.836 18.6068 143.104 16.9531 147.141 16.9531C154.406 16.9531 158.143 22.0443 158.352 32.2266V60H147.258V33.0469C147.258 30.651 146.893 28.9193 146.164 27.8516C145.461 26.7578 144.211 26.2109 142.414 26.2109C140.409 26.2109 138.846 27.2396 137.727 29.2969V60H126.633V17.7344H137.023ZM179.836 41.6016L185.461 17.7344H197.258L183.352 66.3281C181.268 73.4896 177.349 77.0703 171.594 77.0703C170.266 77.0703 168.755 76.8229 167.062 76.3281V67.6953L168.352 67.7344C170.07 67.7344 171.359 67.3958 172.219 66.7188C173.104 66.0677 173.768 64.9219 174.211 63.2812L175.07 60.4297L162.883 17.7344H174.758L179.836 41.6016ZM203.586 56.2109C203.586 54.9609 203.951 53.9193 204.68 53.0859C205.435 52.2526 206.555 51.8359 208.039 51.8359C209.523 51.8359 210.643 52.2526 211.398 53.0859C212.18 53.9193 212.57 54.9609 212.57 56.2109C212.57 57.4089 212.18 58.4115 211.398 59.2188C210.643 60.026 209.523 60.4297 208.039 60.4297C206.555 60.4297 205.435 60.026 204.68 59.2188C203.951 58.4115 203.586 57.4089 203.586 56.2109ZM238.898 54.8828C241.19 54.8828 243.026 54.1797 244.406 52.7734C245.786 51.3411 246.542 49.3099 246.672 46.6797H253.195C253.039 50.7422 251.594 54.1146 248.859 56.7969C246.151 59.4531 242.831 60.7812 238.898 60.7812C233.664 60.7812 229.667 59.1406 226.906 55.8594C224.172 52.5521 222.805 47.6432 222.805 41.1328V36.4844C222.805 30.1042 224.172 25.2604 226.906 21.9531C229.641 18.6198 233.625 16.9531 238.859 16.9531C243.182 16.9531 246.607 18.3203 249.133 21.0547C251.685 23.7891 253.039 27.526 253.195 32.2656H246.672C246.516 29.1406 245.76 26.7969 244.406 25.2344C243.078 23.6719 241.229 22.8906 238.859 22.8906C235.786 22.8906 233.508 23.9062 232.023 25.9375C230.539 27.9427 229.771 31.25 229.719 35.8594V41.25C229.719 46.224 230.448 49.7396 231.906 51.7969C233.391 53.8542 235.721 54.8828 238.898 54.8828ZM275.852 54.8828C278.143 54.8828 279.979 54.1797 281.359 52.7734C282.74 51.3411 283.495 49.3099 283.625 46.6797H290.148C289.992 50.7422 288.547 54.1146 285.812 56.7969C283.104 59.4531 279.784 60.7812 275.852 60.7812C270.617 60.7812 266.62 59.1406 263.859 55.8594C261.125 52.5521 259.758 47.6432 259.758 41.1328V36.4844C259.758 30.1042 261.125 25.2604 263.859 21.9531C266.594 18.6198 270.578 16.9531 275.812 16.9531C280.135 16.9531 283.56 18.3203 286.086 21.0547C288.638 23.7891 289.992 27.526 290.148 32.2656H283.625C283.469 29.1406 282.714 26.7969 281.359 25.2344C280.031 23.6719 278.182 22.8906 275.812 22.8906C272.74 22.8906 270.461 23.9062 268.977 25.9375C267.492 27.9427 266.724 31.25 266.672 35.8594V41.25C266.672 46.224 267.401 49.7396 268.859 51.7969C270.344 53.8542 272.674 54.8828 275.852 54.8828Z" fill="white"/>
</svg>
